<svg width="72" height="72" viewBox="0 0 72 72" fill="none" xmlns="http://www.w3.org/2000/svg">
<path d="M71.4899 37.1331C71.493 34.6674 71.2845 32.206 70.8668 29.7759H36.7441V43.7114H56.288C55.8881 45.9371 55.0416 48.0588 53.7996 49.9485C52.5577 51.8383 50.9459 53.457 49.0615 54.707V63.7528H60.7255C67.555 57.4559 71.4899 48.1438 71.4899 37.1331Z" fill="#4285F4"/>
<path d="M36.7438 72.4922C46.5082 72.4922 54.7298 69.2859 60.7252 63.758L49.0612 54.7122C45.8147 56.9133 41.6336 58.1697 36.7438 58.1697C27.3061 58.1697 19.2956 51.8075 16.4311 43.2341H4.41528V52.5563C7.42685 58.549 12.0448 63.5867 17.7535 67.1071C23.4622 70.6274 30.037 72.4918 36.7438 72.4922V72.4922Z" fill="#34A853"/>
<path d="M16.4311 43.2374C14.9168 38.7449 14.9168 33.8799 16.4311 29.3873V20.0652H4.41535C1.88191 25.1065 0.5625 30.6703 0.5625 36.3124C0.5625 41.9544 1.88191 47.5183 4.41535 52.5596L16.4311 43.2374Z" fill="#FBBC04"/>
<path d="M36.7446 14.4498C41.9046 14.3655 46.8906 16.3152 50.6248 19.8773L60.952 9.55004C54.4035 3.39931 45.7281 0.0224478 36.7446 0.127374C30.0377 0.12768 23.4629 1.99208 17.7542 5.51243C12.0455 9.03278 7.42759 14.0705 4.41602 20.0632L16.4318 29.3854C19.2963 20.812 27.3068 14.4498 36.7446 14.4498V14.4498Z" fill="#EA4335"/>
</svg>
