<svg width="326" height="14" viewBox="0 0 326 14" fill="none" xmlns="http://www.w3.org/2000/svg">
<line opacity="0.2" y1="6.5" x2="136.61" y2="6.5" stroke="#CDD1D0"/>
<line opacity="0.2" x1="189.391" y1="6.5" x2="326" y2="6.5" stroke="#CDD1D0"/>
<path d="M159.5 8.37695V8.2334C159.5 7.69108 159.577 7.19206 159.732 6.73633C159.887 6.27604 160.113 5.87728 160.409 5.54004C160.705 5.2028 161.07 4.94076 161.503 4.75391C161.936 4.5625 162.433 4.4668 162.993 4.4668C163.554 4.4668 164.053 4.5625 164.49 4.75391C164.928 4.94076 165.295 5.2028 165.591 5.54004C165.892 5.87728 166.119 6.27604 166.274 6.73633C166.429 7.19206 166.507 7.69108 166.507 8.2334V8.37695C166.507 8.91471 166.429 9.41374 166.274 9.87402C166.119 10.3298 165.892 10.7285 165.591 11.0703C165.295 11.4076 164.93 11.6696 164.497 11.8564C164.064 12.0433 163.567 12.1367 163.007 12.1367C162.446 12.1367 161.947 12.0433 161.51 11.8564C161.077 11.6696 160.71 11.4076 160.409 11.0703C160.113 10.7285 159.887 10.3298 159.732 9.87402C159.577 9.41374 159.5 8.91471 159.5 8.37695ZM161.469 8.2334V8.37695C161.469 8.68685 161.496 8.97624 161.551 9.24512C161.605 9.514 161.692 9.75098 161.811 9.95605C161.934 10.1566 162.093 10.3138 162.289 10.4277C162.485 10.5417 162.724 10.5986 163.007 10.5986C163.28 10.5986 163.515 10.5417 163.711 10.4277C163.907 10.3138 164.064 10.1566 164.183 9.95605C164.301 9.75098 164.388 9.514 164.442 9.24512C164.502 8.97624 164.531 8.68685 164.531 8.37695V8.2334C164.531 7.93262 164.502 7.65007 164.442 7.38574C164.388 7.11686 164.299 6.87988 164.176 6.6748C164.057 6.46517 163.9 6.30111 163.704 6.18262C163.508 6.06413 163.271 6.00488 162.993 6.00488C162.715 6.00488 162.478 6.06413 162.282 6.18262C162.091 6.30111 161.934 6.46517 161.811 6.6748C161.692 6.87988 161.605 7.11686 161.551 7.38574C161.496 7.65007 161.469 7.93262 161.469 8.2334Z" fill="#D6E4E0"/>
</svg>
